<?xml version="1.0" encoding="UTF-8"?>
<svg xmlns="http://www.w3.org/2000/svg" xmlns:xlink="http://www.w3.org/1999/xlink" version="1.1" viewBox="0 0 917.5 1239.6">
  <!-- Generator: Adobe Illustrator 29.3.0, SVG Export Plug-In . SVG Version: 2.1.0 Build 146)  -->
  <defs>
    <style>
      .st0 {
        fill: none;
      }

      .st1 {
        fill: #558b71;
      }

      .st2 {
        fill: #6c9465;
      }

      .st3 {
        fill: #548575;
      }

      .st4 {
        fill: #4b8869;
      }

      .st5 {
        fill: url(#Gradient_bez_nazwy);
      }

      .st6 {
        fill: #669163;
      }

      .st7 {
        fill: #81aa5e;
      }

      .st8 {
        fill: #7aa75a;
      }

      .st9 {
        fill: #25393f;
      }

      .st10 {
        fill: #7eaf60;
      }

      .st11 {
        fill: #84a85e;
      }

      .st12 {
        fill: #507a48;
      }

      .st13 {
        fill: #6e9f65;
      }

      .st14 {
        fill: #74af4d;
      }

      .st15 {
        clip-path: url(#clippath);
      }

      .st16 {
        fill: #558c6f;
      }

      .st17 {
        fill: #82a85e;
      }
    </style>
    <clipPath id="clippath">
      <rect class="st0" y="0" width="917.5" height="1148.3"/>
    </clipPath>
    <linearGradient id="Gradient_bez_nazwy" data-name="Gradient bez nazwy" x1="-114.2" y1="1581" x2="765.8" y2="1605.5" gradientTransform="translate(153 2212.5) scale(1 -1)" gradientUnits="userSpaceOnUse">
      <stop offset="0" stop-color="#467245"/>
      <stop offset="0" stop-color="#506a70"/>
      <stop offset=".4" stop-color="#294a51"/>
      <stop offset=".5" stop-color="#294950"/>
      <stop offset=".6" stop-color="#185053"/>
      <stop offset=".7" stop-color="#5d8582"/>
      <stop offset=".9" stop-color="#409db9"/>
      <stop offset=".9" stop-color="#288bad"/>
      <stop offset=".9" stop-color="#66865e"/>
    </linearGradient>
  </defs>
  <g id="Warstwa_1">
    <g id="Warstwa_2">
      <g id="Dolny_akcent">
        <path class="st9" d="M430.5,1223.5l-1.2,2.6c-35.7.2-71.8-.2-107.5,0-18.5,0-37.1.4-55.6.4-72.6.3-145.2-.2-217.7-.2l-1.7-2.8h383.7Z"/>
        <path class="st9" d="M878.2,1223.5c1.6,1.2,1.1,2-1.5,2-16.4,1-30.9,0-50.4,0-88.5,0-224.4,1.8-337.3,0l-1.5-2h390.7Z"/>
        <path class="st14" d="M462.2,1213.1c2,2.4,2.2,8.3,2.7,10.4v.6c1.7-2.6,9.6-2.5,9.8.5.2,2.4-13.3,13.2-16,15-4.7-4.3-13.1-8.6-16-16.1,4.9-2.5,9-.9,9.7,0,0-4.8,2.8-14,9.8-10.4Z"/>
        <g class="st15">
          <g>
            <path class="st5" d="M767.8,831.5c-21-11.6-31.4-30.8-53.1-41.9-32.4-16.5-75.1-17.6-106.4-33.5-1.1-.6-2.5-1.5-2.7-2.8,33.5,3.7,41,2.7,74.4-1.8,4.5-.6,56.2-8.5,98.7-22-13.1,4.1-49.4,8.2-65.3,9.9s-164.5,13.2-215.7-49.7c-31-38.1-34.1-105.1-13.9-148.8,22.2-47.9,107.2-75.7,156-64.3,6.7,1.5,20.7,4.2,19.8,12.7-9.3-1.7-15.9-2.5-20.8,6.7-7.7,14.5-2.2,34.6,8.5,46.2,16.2,17.5,43.4,14,63.8,7.1,4.9-17.2,4.2-38.3-6.9-53-12.7-16.8-63.1-33.7-84-34.9-37.2-2.2-112.9,20.2-139.4,47.5-7.4,7.7-11.3,16-17.2,23.8-.9,1.1-1.1,2-2.8,1.6-9.3-32.2-3.2-64.4,8.2-95.2,8.5-23,21.5-44.3,39.1-61.4,6.7-6.5,15-11.6,21.6-18.3-24,11.3-44.9,28.9-62.9,48,7.2-31.6,7.3-64.3-3.3-95.2-2-5.9-4.4-13.2-8.7-17.7,1.7,11.3,5.7,22.2,6.8,33.6.1,1.1,1,4.5-.9,4.4-13.7-29-34.2-54-49.2-82.3l-17.8-40.7c4.2,26,17.4,49.8,29.8,72.6,11.5,21.1,26.6,42.4,35.3,64.6,8.4,21.2-.3,59.8-6.9,81.4-2.3,7.4-4.8,15-7.8,22.2-1,0-4-12.1-4.8-14.2-8.1-22.1-32.2-69.3-48.2-85.7-4.8-5-12.3-11.2-18.5-14,11.9,12.2,21.4,26,29.5,41,17.4,32.4,29.7,68.4,31.5,105.5.8,18.2-1,36.3-1,54.5-1.8,1.8-6.5-4.9-7.8-5.9-41.6-33-73-29.8-122.6-34.1-26.5-2.3-51.7-10.4-72-28-2.2-.7,3.7,6.7,4.5,7.5,32.9,33.7,81.8,25.7,123.2,36.7,20.3,5.4,53.5,19.5,61.4,40.5,9.1,24.3,12,88,5.8,113.1-1.4,5.7-2.9,9.9-5.1,13.6-5.8,9.3-20.7,19.9-28.2,24.5-44.5,27.4-84.4,32.3-84.4,32.3-81,13.7-169.9-11.8-187.2-15.8,5,2.4,10,4.6,14.9,6.5,54.9,21.7,115.7,30.4,174.6,25.8.5,2.7-.6,1.7-2,2.4-34.7,17.1-73.6,13.7-106.6,36.3-17.3,11.8-25.7,28.7-43.9,39-21.2,12-55.6,17.6-77.2,4.2-1.1,1.1,3.1,4.8,4,5.4,20.7,15.1,68.1,2.8,87.9-11.4-6.4,20.4-9.6,37.9-24,54.5-19.1,22-31.1,27.4-59.2,32.7-.9.2-1.2.3-2.7,1.7,29,5.8,64.9-21.2,77.8-45.6,7.1-13.4,8.7-29.7,14.7-43.3,15.3-34.9,61.5-46.3,95.4-53-13.9,12.1-28.8,24.4-34,43h2c7.4-18.5,24.7-29.7,41.3-39.2,12.1-6.9,27-14.2,40.1-18.9,55.5-25.4,75.4-29.9,89.5-38.9,31.1-20-32.1,70.5-60.8,93.9-25.5,20.8-52.5,19.3-83.3,26.4-33.5,7.6-72.5,22-95.7,48.2-5.1,5.7-18.8,25.1-20,32-.4,2.2-.9,3.6,1.5.5,4.3-5.3,7.7-13.1,12.1-18.9,16.2-21.1,38.1-36.2,64.4-42-17.3,19.8-19.3,44.5-35.6,65.8-24.8,32.4-42.1,31.7-76.6,45.4-1,.4-1.7.3-2.7,1.7,39.5-4.1,72.9-24.3,92.5-58.9,12.3-21.8,14.1-47.9,40.9-58,22.4-8.4,50-9.4,73.5-14-17.4,13.7-35,26-49,43.5-23.2,29-33.1,69.3-62.1,92.8-12.6,10.2-27.3,17.1-42.9,21.6,2.1,1.1,2.2,1,3.4.9,15.7-1.5,38.7-13,50.6-23.4,25.5-22.1,33.1-55.1,53-80.7,20.5-26.4,53.8-47.4,81.9-65.3,1.3-.9,2-2,4-1.5-16,19.2-34.3,36.5-47.4,58-14.9,24.4-22.2,52.3-30.5,79.4l-7.5,20.4c16.4-29,20.5-61.9,38.1-90.9,16.5-27.2,42.8-45.9,62.3-70.6,10.3-13,17.5-27.3,26.8-40.1.9-1.2,1.1-2.8,3.2-2.3-4.5,29.9-3.6,60.5-11.7,89.7-9.2,33.2-17.1,47.9-44.3,68.6-9.8,7.4-33.7,20.7-39.3,29.6-1.1,1.8-1.4,3.8-2.5,5.5,2.2-1.4,3.1-2.4,4.7-4.2,4.4-5,11.4-8.8,17.6-11.5.8-.4,2.1-1.7,2.7-.3l-23,45.5c3.2-2.9,5.7-6,6.4-7.1,10.2-15.4,16.4-34.2,30.1-46.9l30.4-23c-6.5,14.2-10,33.4-20,45.5-5.2,6.3-12.4,11.1-18,17,4.3-.9,7.3-4,10.5-5.5l15.5-15,.3,1.1,1.7,6.9,5,30c1.6-15.7-3.2-33.7-.8-49.2,2-12.8,18.5-42.2,24.2-56.7,3-7.8,5.7-20,9.3-26.7.6-1.2,1-1.7,2.5-2.7,1.3,9.7,2.8,15.9,6,23,5.7,12.6,8.7,20.9,13.2,34.5,3.2,9.8-2.2,29.2-3.5,40.5-1.1,9.5-.7,19.3-2.1,28.8-1,7-3.5,15.2-5.5,21.7,1.5-1.5,3.1-3.9,3.9-5.4,9-18.3,8.2-42,11-62l1.8-7.6,4.7,13.8,14.3,67.2c0-9.5-.2-19-1-28.5-3.3-39.2-11.4-71.5-26.7-107.2-14.5-33.9-3.4-108.1,9.7-142.7.4-1.2.5-3.6,2-3.5-1.5,13.1-2.8,26.3-2,39.5,1.7,29.3,14.2,52.4,25.5,78.5,3.2,7.4,7.1,15,10.4,22,2.8,6,7,13.8,9.3,20.3,6.1,17.1,1.2,49.5-2.9,67.5-1.8,7.8-8.3,24.2-8.3,30.7v20.5l4.1-21.4c9.2-23.3,12.1-46.5,15.9-71,.3-1.7-.5-3.2,1.5-4.5,6.3,10,9.4,25,11.2,37.2-1.9,17.6-10.1,27.1-3.4,47,.7,2.2,4.6,8.9,7.6,9.9-7.4-13.2-6.8-30.6-1.4-44.1,7.1,13,15.9,26.8,30.5,32l-7.2-6.5-7.2-6.5c-14.2-16.5-16.2-44.2-22.8-65.2-3.3-10.8-7.2-21.6-10.7-32.3-1.7-5.1-5.9-9.4-4.8-14.7l11.3-37.7c6.4,12.6,10.2,26.3,15.8,39.2,7.5,17.6,18.4,32.4,21.5,51.4,2.8,16.6.9,45.7,12.1,57.9,5.6,6,16.5,10.5,24.6,11.4,3.9,0,4.4-.3,5.9-.8-18.5-5-31.9-16.3-33.4-35.6-1-12.9-.3-26.5-2-39.5,12.8,13.1,29,22.8,39.4,38.1,6.6,9.7,11.3,21.1,19.1,29.9,0-1.9,0-1.4-.7-3.3-8.1-14.6-15.7-29.3-25.8-42.7l33,7.5c-15-8.9-31.4-8.5-44-19-19-15.8-39.2-53.4-47.4-76.5-11-31.3-20.4-63-30.2-94.7-8.1-26.2-20.4-50.5-17.2-79.2,1.4-.2,1.4,1.8,1.7,2.8,7.3,26.3,13.7,46.7,27.1,70.8,5.7,10.2,17.6,24.1,21.6,33.4,3,7,3.2,16.5,6.8,24.2,14.8,31.9,61.8,49.6,82.1,86.8,5.3,9.2,15.5,58.5,39.5,89.4-1.2-2.3-3.5-6.1-4.8-8.2-23.9-41.3-17.7-79.8-57.5-115.9-14.2-15.6-47.9-39.2-52.4-59-.3-1.5-.8-2.7,1.3-2.3,7.2,5.7,15.1,13.6,23.2,17.8,5.7,3,14,4.1,18.8,7.2,16.6,10.3,51,40.5,63.4,55.8,21.4,26.4,28.5,63.2,55,85.7,16.5,14.1,39.4,21.5,61,22.5l-31.3-10.1c-48.1-21.9-51.1-68.8-80.6-106-14.5-18.2-33.3-32.6-51.9-46.3-.3-2.3.6-1.4,2.1-1.1,17.2,3,35,4.1,52,7.9,56.1,12.6,41.8,50.2,71.7,84.2,15.4,17.4,46.5,36,69.6,39.3,1,.2,4.6.9,4.4-.9-29.4-6.6-63.3-24.7-79.8-50.7-13.5-21.3-13.6-51.4-37.1-65.8.6-1.3,2.7,0,3.7.3,30.9,12,61.1,30.3,79.8,58.2,1.4-.7,0-2.6-.4-3.5-15.7-30-63.5-56.7-95.2-65.7-29.1-8.2-68.6-6.3-93.5-23.5-23.5-16.2-48.1-53.3-61.4-78.5-4.1-7.8-8.5-16.2-10.8-24.7,30.6,36.2,80.4,34.3,121.6,50.8,25.2,10.1,56.5,26.3,66.3,53.2l1.5,3.5c-2.6-14.7-11.6-28.7-22-38.4l-17.5-12c21.3,4.5,45.4,9.2,65.5,17.9,48.3,21.1,31.4,49,53.6,86.3,11.8,19.8,37.5,39.5,61.4,39.6,2.3,0,8.5-.7,9.4-2.9-22.5,1.2-43-10.5-57.5-27-15.7-17.9-21.3-41.1-25.5-64l26,14.5c17.4,7.3,40.1,11.1,58.2,4.3,1.5-.6,5-2.2,5.7-3.8-24.1,6.7-48,2-69.6-9.8l-.7-.2h0ZM475,813.7c5.2,19.6,9.2,25.8,5.4,46.9-1.2,6.7-3.2,13.2-4.7,19.8-1.8.4-2-.5-2.8-1.7-3-3.9-7.3-14.8-9.2-19.8-6.6-17.6-14.5-40.7-16.8-59.1-2.7-21.1-1.2-44.5.6-63.7l1-10.7c.4-1.6.7-3.1.8-4.5,1.4,8.1,3.4,16.2,5.5,24,6,23.1,14.1,45.8,20.2,68.8Z"/>
            <path class="st16" d="M467.3,201.7c9.6,15.5,15,33.9,9.9,52.2-1.4,5.1-10.1,21.5-15.7,21.2-6.2-.3-23.2-14.5-27.5-19.5-20.6-24.2-24-63.5-17.5-93.4l1.8-.8c20.6,7.6,37.6,21.8,49.1,40.4h-.1q0-.1,0-.1Z"/>
            <path class="st11" d="M738.7,342c-5.8,16.1-10.3,32.8-18.5,48-11.1,20.7-32.6,43.4-58.2,30.1-2.5-1.3-7.9-7.4-10.2-11-1.7-1.9-2-2.6-2.2-2.9s-1-2-1-2c-.5,0,3.5,4,0,1-2.5-6,.5-1.5-.9-3.2.6-2.9.7-6.1,1.5-9,2.8-11.1,13.3-25.4,22-32.9,18-15.5,44-20.4,67.5-18h0q0-.1,0-.1Z"/>
            <path class="st4" d="M763.1,466.4c-12.6,10.1-31.7,23.9-48.9,22.6-10-.8-38.2-18.8-46-26-3.9-3.6-1.5-5.7,1.1-9.9,19-30.9,60.1-25.9,88.4-11.6,3.2,1.6,16.2,9,18,11,.5.6,1.2,1,1.1,2,0,2-11.2,10-13.6,11.9h0Z"/>
            <path class="st6" d="M252.7,394.4c11.6,6.1,32.6,24.7,35.1,38.3,4.9,26.2-21.1,40.3-41.7,23.8-20.7-16.5-28.1-48.2-30-73.5,2.2-2.3,32.1,9,36.6,11.4h0Z"/>
            <path class="st3" d="M208.6,570.9c-3.4-1.1.5-11.3,1.3-13.7,9.9-28.5,44.5-59.8,75.7-42.3,18.3,10.3,11.4,21.4-1.3,33-11.2,10.2-36.5,23-51.7,23s-20.9,1-24,0h0Z"/>
            <path class="st17" d="M532.6,164.4c3.7,10.1,9.9,19.9,12,30.5,5,25.7-1.3,51.8-27.4,61.6-.3.1-1.8.6-2.5.8-1.6.4-3.6,1.1-5.1.6,0-.6-8.2-5.6-8.5-6-.5-.9-1.3-1.6-1.9-2.6-.8-1.4-1.8-2.5-3.1-6.9-6.7-23.9,4.8-48.4,19.7-66.7,2-2.4,10.7-11.1,13-12,1.4-.6,2.6,0,3.7.8h0c0-.1.1-.1.1-.1Z"/>
            <path class="st11" d="M692.4,317.7c-4.4,6.9-15.1,16.7-23.4,18.1-10,1.7-17.9-5.1-21.6-13.9-11.5-27.1,14-53.7,37.2-63.5,2.4-1,18.4-6.5,19.6-6.2,1.5.4,1.6,2.1,1.6,3.4,0,18.2-3.6,46.6-13.4,62.2h0q0-.1,0-.1Z"/>
            <path class="st13" d="M347.4,276.6c9.5,9.6,19.1,28.7,15,42.4-.5,1.7-3.7,7-7.9,7s-6.2.2-8.3,0c-13.5-1.4-17.9-1.1-28.9-11.3-11.6-10.7-19.6-33.9-22.1-49.4-.4-2.7-.3-5.6-.8-8.3,1.2-1.7,5-1,6.9-.8,16.8,1.2,34.2,8.4,46,20.4h.1,0Z"/>
            <path class="st1" d="M324.6,398.3c18.9,17.4,17.5,54.9,6.5,76.3-1.4,2.8-10.3,16.3-12.6,16.3-4.9,0-15.1-14.6-17-19-9.6-21.9-7.7-55.6,11.3-71.9,5.2-4.5,6.2-6.9,11.8-1.7h0Z"/>
            <path class="st12" d="M580.4,313.7c-2.4,4.6-9.9,13.4-14.3,16.2-13.1,8.4-29.4,8.2-31.3-10.3-2.6-25.4,15.9-51.6,38.8-61.1,1.9-.8,13.6-4.4,14.6-4.2,2,.5,1.6,3.8,1.7,5.4,0,14.1-3,41.6-9.5,54.1h0Z"/>
            <path class="st3" d="M331.7,523.2c11.6-1.8,24.5,6.4,27.8,17.7,7.6,26.7-25,50.9-45.9,61-6.4-12.7-7.7-30.4-6.6-44.5,1.1-13.6,10-32,24.8-34.2h-.1,0Z"/>
            <path class="st13" d="M366.6,210.5c11.4,7.5,27.9,27.1,28.4,41.1.3,8.1-5.9,13.3-13.6,14.4-24,3.2-43.1-20.7-51.1-40.7-1.3-3.3-8.5-26.9-7.3-28.2,14.5,1,31.4,5.4,43.6,13.4h0Z"/>
            <path class="st4" d="M637.2,314.5c-10.4,8.8-16.4,4.2-22.7-5.7-12.2-19.3-9.6-45.4,4.3-62.9,1.7-2.1,11.8-12.8,13.5-12.8,4.4,0,13.2,18.3,14.4,22.6,5.8,20.5-1.6,25.6-4.7,43.2-1.4,7.9,2.4,9.6-4.8,15.7h0Z"/>
            <path class="st12" d="M288.7,345.8c-1.2,1.2-10.7,5-12.9,5.5-30.7,8.1-57.4-17-65.7-44.7.5-1.7,6.7-2.4,8.5-2.6,19.8-1.8,46.9,5.2,61,19.9,3.5,3.6,13.4,17.4,9.2,21.8h-.1q0,.1,0,.1Z"/>
            <path class="st2" d="M622.8,363c.4,24.3-4.5,55.8-28.3,68.1-24.8,12.8-24.1-13.5-19-30,6.7-21.3,26.2-33.8,47.2-38.2h0Z"/>
            <path class="st12" d="M556.4,439.6c-4.8,5.3-17.9,11.9-24.9,11.1-4.8-.6-8.2-10-8.6-14.2-2.5-23,10.6-46.4,30.5-57.2,15.9,15,17.7,43.8,3,60.3h0Z"/>
            <path class="st7" d="M636.8,556.9c-25.4,3.6-49.9-1.8-66.9-21.5-6-7-8.5-8.3.3-13.7,21.3-12.8,45.1-7.9,58.1,13.3,1.8,2.9,10.3,20.1,8.6,21.9h0Z"/>
            <path class="st17" d="M517.3,338.4c-.5.5-.6,1.2-1.7,1.9-16.5,9.9-26.7-5-26.8-20.7-.1-18.8,15.8-34,28.6-45.5,9.9,16.6,16.3,50.7,0,64.4h0q0,0,0,0h0Z"/>
            <path class="st10" d="M378.3,433.6c.5.5,1.5,1.2,2.4,2.1,9.1,8.9,18.4,25.8,14,38.5-.6,1.7-5.7,7.7-6.4,7.8-3.4.5-14.8-3.8-17.8-6-4.8-3.5-11.9-13.9-13.4-19.6-1.4-5.1-1.7-32.5,1.9-35s16.6,9.7,19.4,12.2h-.1Z"/>
            <path class="st8" d="M612.8,354c1.9.7,3.4,1.7,4.9,2.2-.5.8-18.7,10-20.3,10.9-9.6,5-22.7,5.2-32.4.3-12-6-18.7-16-1.9-21.7,17.6-5.9,33.7,2.3,49.8,8.3h0Z"/>
            <path class="st10" d="M325.4,376.4c-7.5,3.6-17,4.5-25.8,2.5-3-.7-18.6-9.4-18.6-11.4,13.6-18.3,41.1-19.4,55.8-1.8,1,3.7-8.6,9.3-11.5,10.7h.1Z"/>
            <path class="st10" d="M420.6,322.4c8.7,7.8,16.6,25.4,7.8,35.5-7,7.9-12.5,5.4-17.2-2.6-7.7-13.1-2.8-23.1,1.9-36.2,1.9-1.3,6,1.9,7.5,3.3h0Z"/>
            <path class="st10" d="M365.3,401.7c-6-6.9-7-20.8-7.3-29.7,9.6,1.5,18.8,5.9,24.4,14.1,10.6,15.4-6,28.5-17.1,15.6h0Z"/>
          </g>
        </g>
      </g>
    </g>
  </g>
  <g id="NAPIS">
    <g id="Warstwa_3">
      <g id="Napis">
        <g>
          <path class="st9" d="M356.8,1124.9h-22.8c2-2.1,3.8-3.9,5.3-5.4h46.3c-2.9,3-2.7,2.9-5.3,5.4h-17.5v54.7c-2,2.3-1.7,1.9-2.8,3s-1.1,1-3.3,2.9v-60.5h0Z"/>
          <path class="st9" d="M402.6,1124.6c2.4-2.3,1.7-1.6,2.8-2.6s.8-.8,3.3-3.2v30.4h36.7v-24.6c2.5-2.6,2.1-2.2,3.1-3.1,1-1,.7-.5,2.9-2.7v61c-1.7,1.9-1.8,1.9-2.3,2.4-1,1-1.2,1.3-3.8,3.5v-31h-36.7v25.1c-2,2.4-1.4,1.8-2.6,2.9-.6.5-1,.9-3.5,3v-61h0Z"/>
          <path class="st9" d="M471.6,1181.8v-59.3M471.6,1119.7h44.1c-3.7,3.8-4.3,4.3-5.3,5.4h-32.8v24.2h27c-1.7,1.9-3.5,3.8-5.3,5.5h-21.7v24.6h38.1c-1.7,1.4-4.8,4.2-6.2,5.2h-37.9"/>
          <path class="st9" d="M565.3,1122.4c0-.8,0-2.5.2-2.7.3-.2,2-.2,2.9-.2h26.3c3.7,0,6.9.8,9.7,2.4,2.9,1.6,5.1,3.8,6.7,6.5,1.6,2.8,2.4,6,2.4,9.6,0,7.4-3.3,12.7-10.2,15.8v.3c2.9,1.1,5.1,2.9,6.8,5.4,1.6,2.5,2.4,5.4,2.4,8.8v11.3c-1.5,1.7-1.5,1.7-2.4,2.5-1,1-1.5,1.6-3.7,3.3v-16.6c0-4-1-7-2.9-9.1-1.9-2.1-4.7-3.1-8.3-3.1h-23.9v23c-1.3,1.5-1.5,1.7-2.6,2.6s-1.5,1.7-3.5,3.2v-63h.1ZM594.7,1151.3c3.8,0,6.8-1.2,9.1-3.6,2.3-2.4,3.4-5.6,3.4-9.6s-1.1-7.3-3.3-9.6c-2.2-2.3-5.3-3.5-9.2-3.5h-23.4v26.3h23.4Z"/>
          <path class="st9" d="M643.8,1182.5c-4-2-7-4.8-9.2-8.4-2.2-3.6-3.3-7.7-3.3-12.2v-19.8c0-4.5,1.1-8.5,3.3-12,2.2-3.5,5.2-6.3,9.2-8.4s8.6-3,13.8-3,9.8,1,13.8,3c4,2,7,4.8,9.2,8.4,2.2,3.5,3.3,7.5,3.3,12v19.8c0,4.5-1.1,8.6-3.3,12.2-2.2,3.6-5.3,6.4-9.3,8.4s-8.5,3.1-13.6,3.1-9.8-1-13.8-3.1h0ZM672.5,1175.2c3.5-3.3,5.3-7.7,5.3-13.3v-19.6c0-5.6-1.7-10-5.3-13.2-3.5-3.3-8.5-4.9-15-4.9s-11.6,1.6-15,4.9-5.3,7.7-5.3,13.2v19.6c0,5.6,1.7,10,5.3,13.3s8.5,4.9,15,4.9,11.4-1.7,15-4.9h0Z"/>
          <path class="st9" d="M713.6,1182.5c-4-2-7-4.8-9.2-8.4-2.2-3.6-3.3-7.7-3.3-12.2v-19.8c0-4.5,1.1-8.5,3.3-12,2.2-3.5,5.2-6.3,9.2-8.4,4-2,8.6-3,13.8-3s9.8,1,13.8,3c4,2,7,4.8,9.2,8.4,2.2,3.5,3.3,7.5,3.3,12v19.8c0,4.5-1.1,8.6-3.3,12.2-2.2,3.6-5.3,6.4-9.3,8.4s-8.5,3.1-13.6,3.1-9.8-1-13.8-3.1h0ZM742.4,1175.2c3.5-3.3,5.3-7.7,5.3-13.3v-19.6c0-5.6-1.7-10-5.3-13.2-3.5-3.3-8.5-4.9-15-4.9s-11.6,1.6-15,4.9c-3.5,3.3-5.3,7.7-5.3,13.2v19.6c0,5.6,1.7,10,5.3,13.3,3.5,3.3,8.5,4.9,15,4.9s11.4-1.7,15-4.9h0Z"/>
          <path class="st9" d="M791.9,1185.5v-60.5h-22.8c2.9-3.1,3.3-3.4,5.3-5.4h46.3c-1.3,1.3-2.2,2.3-5.3,5.4h-17.5v54.7"/>
          <path class="st9" d="M846.8,1183.1c-3.7-1.6-6.5-3.7-8.4-6.3-1.9-2.6-2.9-8.4-2.9-8.4,2.2-2.7,2.7-3.3,5.5-6.1,0,11.8,6.4,17.7,19.3,17.7s10.6-1.1,13.9-3.3c3.3-2.2,5-5.3,5-9.3s-.6-4.5-1.8-6.1c-1.2-1.6-3.3-2.9-6.1-4.1-2.9-1.1-6.9-2.2-12-3.2-8.1-1.6-13.8-3.8-17.3-6.8-3-2.5-4.7-5.8-5.1-9.8-.6-5.5,1.7-11,6.2-14.3s10-4.7,17.2-4.7,8.1.7,11.6,2,6.2,3.2,8.2,5.6c2,2.4,3,8.1,3,8.1-2,2.4-2.4,2.7-5.2,5.7-.4-10.6-6.5-16-18-16s-9.3,1-12.2,3c-2.9,2-4.4,4.8-4.4,8.4s.6,4.4,1.6,6c1,1.6,2.9,2.9,5.3,4.1,2.5,1.1,6,2.2,10.5,3.1,6.2,1.3,11.1,2.8,14.6,4.4s6.1,3.5,7.7,5.9c1.6,2.3,2.4,5.2,2.4,8.7,0,5.6-2.2,10-6.8,13.2s-10.6,4.8-18.4,4.8-9.5-.8-13.3-2.4h0Z"/>
        </g>
      </g>
    </g>
    <g>
      <path class="st9" d="M27.7,1181.3v-2.9s0-57.9,0-57.9v-2.8h28.9c4.8,0,8.6,1.5,11.5,4.6,2.9,3.1,4.3,7.2,4.3,12.5s-.8,5.9-2.4,8.5c-1.6,2.7-3.7,4.5-6.1,5.5v.2c3.6,1,6.4,2.8,8.3,5.4,1.9,2.6,2.9,5.8,2.9,9.6s-.7,6.4-2,9c-1.3,2.6-3.2,4.7-5.6,6.1-2.4,1.5-5.1,2.2-8.2,2.2h-31.5ZM56.4,1146.7c2.9,0,5.4-1.2,7.4-3.5,2-2.3,3-5.2,3-8.5s-.9-6.7-2.7-8.7c-1.8-2.1-4.4-3.1-7.7-3.1h-22.8v23.8h22.8ZM58.3,1176c3.6,0,6.4-1.1,8.3-3.2,2-2.1,3-5.1,3-8.9s-1-6.7-3-8.7c-2-2.1-4.7-3.1-8.3-3.1h-24.6v23.9h24.6Z"/>
      <path class="st9" d="M105.9,1179.3c-3.7-1.8-6.6-4.4-8.7-7.6-2.1-3.2-3.2-6.9-3.2-11v-43.9l5.9,2.4v41.5c0,3.1.8,5.9,2.4,8.3,1.6,2.4,3.8,4.3,6.5,5.6,2.8,1.3,6,2,9.6,2s6.8-.7,9.6-2c2.8-1.3,5-3.2,6.5-5.6,1.5-2.4,2.3-5.2,2.3-8.3v-40.1s6-3.8,6-3.8v43.9c0,4.1-1.1,7.7-3.2,11-2.1,3.2-5,5.8-8.8,7.6-3.7,1.9-7.9,2.8-12.5,2.8s-8.8-.9-12.5-2.8Z"/>
      <path class="st9" d="M165.8,1122.5v-5.7h5.9v65.1l-5.9.2v-59.6Z"/>
      <path class="st9" d="M195.2,1181.3v-2.9s0-55.8,0-55.8v-5.7h5.9v59.2h35.5l-4.8,5.3h-36.5Z"/>
      <path class="st9" d="M255,1181.2v-2.9s0-57.9,0-57.9v-2.8s3,0,3,0h22.2c5,0,9.4.9,13.2,2.8,3.8,1.9,6.8,4.4,8.9,7.7,2.1,3.3,3.2,7.1,3.2,11.3v19.7c0,4.3-1.1,8.1-3.2,11.5-2.2,3.3-5.1,5.9-9,7.8-3.8,1.9-8.2,2.8-13.1,2.8h-25.2ZM279.3,1176c6.2,0,11.2-1.5,14.8-4.5,3.6-3,5.5-7.1,5.5-12.3v-19.6c0-5.2-1.8-9.2-5.5-12.2-3.6-3-8.6-4.5-14.8-4.5h-18.4v53.1h18.4Z"/>
    </g>
    <text/>
  </g>
</svg>